<svg width="50" height="50" fill="none" xmlns="http://www.w3.org/2000/svg"><path d="M.374 12.68C.374 6.074 5.73.72 12.334.72h24.96c6.605 0 11.96 5.354 11.96 11.96v24.958c0 6.606-5.355 11.96-11.96 11.96h-24.96c-6.605 0-11.96-5.354-11.96-11.96V12.68Z" fill="#FF9B53"/><path d="M29.005 14.207a2.64 2.64 0 0 0-1.857-.762 2.64 2.64 0 0 0-1.857.762L13.758 25.633a2.6 2.6 0 0 0-.769 1.84 2.581 2.581 0 0 0 .77 1.84l1.367 1.354c.596.591 1.433.486 1.938.188a1.47 1.47 0 0 1 1.777.22 1.44 1.44 0 0 1 .223 1.76c-.3.502-.407 1.33.19 1.92l1.369 1.356a2.628 2.628 0 0 0 1.857.762 2.648 2.648 0 0 0 1.857-.762L35.87 24.687a2.6 2.6 0 0 0 .77-1.84 2.581 2.581 0 0 0-.77-1.84l-1.367-1.355c-.596-.59-1.434-.486-1.94-.188a1.47 1.47 0 0 1-1.776-.22 1.44 1.44 0 0 1-.223-1.76c.301-.501.407-1.33-.19-1.92l-1.367-1.357h-.002Z" fill="#fff"/></svg>