<svg width="50" height="50" fill="none" xmlns="http://www.w3.org/2000/svg"><path d="M.771 12.68C.771 6.074 6.126.72 12.732.72H37.69c6.606 0 11.96 5.354 11.96 11.96v24.958c0 6.606-5.354 11.96-11.96 11.96H12.732c-6.606 0-11.96-5.354-11.96-11.96V12.68Z" fill="#79CA00"/><path d="M33.018 16.458H17.404a1.945 1.945 0 0 0-1.952 1.933v13.535c0 1.067.876 1.934 1.952 1.934h15.614a1.945 1.945 0 0 0 1.952-1.934V18.391a1.945 1.945 0 0 0-1.952-1.933Zm.001 5.8c-.001 0-.001 0 0 0h-.454l-2.602-3.867h3.055l.001 3.868Zm-4.392 5.801-5.368 2.9v-5.8l5.367 2.9Zm-.941-5.8-2.603-3.868h2.534l2.602 3.868h-2.533Zm-2.346 0h-2.534l-2.602-3.868h2.533l2.603 3.868Zm-7.936-3.868h.454l2.602 3.868h-3.056V18.39Z" fill="#fff"/></svg>