<svg width="89" height="19" fill="none" xmlns="http://www.w3.org/2000/svg"><path stroke="#CCC" stroke-width=".748" stroke-dasharray="2.24 2.24" d="M4.539 9.28h77.409"/><path d="M43.844 16.694h-1.02a.66.66 0 0 1-.294-.069.595.595 0 0 1-.222-.188.519.519 0 0 1-.043-.535l2.472-4.985-3.712-.075-1.353 1.499c-.258.296-.464.428-.99.428h-.687a.732.732 0 0 1-.314-.06.668.668 0 0 1-.25-.187.585.585 0 0 1-.093-.575l.76-2.488a.61.61 0 0 1 .02-.06.49.49 0 0 1-.02-.056l-.76-2.504a.575.575 0 0 1 .098-.563.636.636 0 0 1 .23-.174c.09-.04.19-.061.291-.06h.726c.392 0 .773.16.996.42l1.326 1.474 3.732-.051-2.471-4.976a.518.518 0 0 1 .043-.535.596.596 0 0 1 .221-.188.66.66 0 0 1 .294-.069h1.032c.144.003.285.035.413.094.129.06.241.145.329.25l4.794 5.326 2.216-.054c.162-.008.611-.01.715-.01 2.119 0 3.384.63 3.384 1.682 0 .332-.145.947-1.114 1.338-.573.23-1.337.348-2.27.348-.103 0-.552-.003-.716-.01l-2.215-.055-4.807 5.326a.943.943 0 0 1-.328.248c-.128.06-.269.091-.413.094Z" fill="#1262AE"/><circle cx="4.732" cy="9.653" r="2.99" fill="#fff" stroke="#1262AE" stroke-width="1.495"/><circle cx="84.981" cy="9.342" r="2.99" fill="#fff" stroke="#1262AE" stroke-width="1.495"/></svg>